<?xml version="1.0" encoding="UTF-8"?>
<svg version="1.1" xmlns="http://www.w3.org/2000/svg" width="512" height="512">
<path d="M0 0 C2.06814565 -0.00543174 4.13628743 -0.01256025 6.204422 -0.02124023 C11.77877415 -0.03935025 17.35282751 -0.03245757 22.92718434 -0.01972389 C28.7849142 -0.00953335 34.64262 -0.01900615 40.50035095 -0.02526855 C50.33263704 -0.03252684 60.16480257 -0.0230045 69.99707031 -0.00390625 C81.33579415 0.01786495 92.67423025 0.01080183 104.01294714 -0.01121187 C113.78071607 -0.02941056 123.5483988 -0.03190256 133.31617922 -0.0214572 C139.1358581 -0.01524759 144.95540209 -0.01431668 150.7750721 -0.02760315 C156.24756286 -0.03922646 161.71968544 -0.03101818 167.19213676 -0.00802612 C169.19067145 -0.00277376 171.18923756 -0.00419262 173.1877594 -0.01307678 C193.23353679 -0.09391738 208.93658289 3.54931127 223.90844727 17.75927734 C224.55692438 18.37001539 225.2054015 18.98075344 225.87352943 19.6099987 C233.54684478 26.871611 241.03970335 34.31530381 248.51928711 41.77539062 C249.26657703 42.51985317 250.01386696 43.26431572 250.78380203 44.03133774 C254.72611936 47.95882902 258.66568384 51.88905556 262.6027832 55.82177734 C266.63356916 59.84705147 270.67358242 63.86293165 274.71574974 67.87677193 C277.86089993 71.00319987 280.99922632 74.1364118 284.13579178 77.27145004 C285.62184799 78.7545093 287.1103688 80.23510378 288.60154343 81.71301651 C305.14137731 98.11599233 318.20282264 113.4911115 318.34051514 137.90202332 C318.33822199 139.27078284 318.33571238 140.63954201 318.33300781 142.00830078 C318.33736083 143.46770996 318.34254594 144.92711685 318.34849548 146.38652039 C318.36182897 150.3305646 318.3624708 154.27451266 318.35993218 158.218575 C318.35885927 161.51644924 318.36375369 164.81430428 318.3685376 168.11217439 C318.37961185 175.89185497 318.38008104 183.67148724 318.37402344 191.45117188 C318.3679759 199.46970131 318.38031915 207.48805563 318.40159351 215.5065552 C318.41921332 222.40188133 318.42521052 229.29715171 318.42195576 236.19249952 C318.42014439 240.306224 318.42276513 244.41982335 318.4366703 248.53352737 C318.44925134 252.39959879 318.44730212 256.26539676 318.43425941 260.131464 C318.4318952 261.54800191 318.43462282 262.9645591 318.44288254 264.38107491 C318.45336306 266.31844725 318.44343943 268.25589762 318.43257141 270.19326782 C318.43282302 271.81755172 318.43282302 271.81755172 318.43307972 273.47464943 C317.68228567 279.57133796 314.62429394 283.58874231 310.05834961 287.51757812 C304.39500328 291.62350421 297.76220265 291.36990174 291.05834961 290.51757812 C285.26062247 288.51708442 282.03914565 284.74291655 278.96850586 279.58007812 C277.11179174 275.37258863 276.9335911 271.20463021 276.93377686 266.65519714 C276.93121384 265.48190353 276.92865082 264.30860992 276.92601013 263.09976196 C276.92810989 261.82120331 276.93020966 260.54264465 276.93237305 259.2253418 C276.93097728 257.85829104 276.92907731 256.49124071 276.92671204 255.12419128 C276.92222372 252.18479757 276.92035914 249.24541779 276.92024994 246.30602074 C276.91910693 241.6533036 276.9062491 237.00066533 276.89068604 232.34797668 C276.88811318 231.56173878 276.88554033 230.77550088 276.88288951 229.96543759 C276.8776232 228.3579476 276.87233772 226.75045768 276.86703348 225.14296782 C276.83196375 214.31559566 276.80537132 203.48832241 276.80786133 192.66088867 C276.809452 185.35098964 276.79336756 178.04136063 276.7571547 170.73154813 C276.73873067 166.86690046 276.72932057 163.00270345 276.74163055 159.13802147 C276.75310448 155.50076829 276.74127831 151.86432105 276.71199608 148.22717476 C276.70223978 146.26545517 276.717084 144.30366085 276.73280334 142.34197998 C276.59008354 130.15763396 271.6973038 124.69694781 263.33398438 116.4050293 C262.57235992 115.63814789 261.81073547 114.87126648 261.02603149 114.08114624 C258.52472886 111.56671771 256.01270568 109.06333103 253.49975586 106.56054688 C251.74963762 104.8084062 249.99996479 103.05582053 248.25071716 101.30281067 C244.59143466 97.63911518 240.92680597 93.98087598 237.25830078 90.32641602 C232.55949174 85.64472319 227.87431335 80.94965679 223.19303989 76.25043774 C219.58593551 72.63248963 215.97171242 69.02172113 212.355299 65.41308022 C210.62475373 63.68453399 208.89642814 61.95376252 207.17038155 60.22072411 C204.75814663 57.80086267 202.33648976 55.3908393 199.91210938 52.9831543 C199.20282791 52.26780014 198.49354645 51.55244598 197.76277161 50.81541443 C190.25711242 43.40512864 183.80575438 41.36117197 173.36265564 41.38386536 C172.59505891 41.3815998 171.82746218 41.37933424 171.03660494 41.37700003 C168.46823559 41.37067744 165.89991924 41.3714883 163.33154297 41.37231445 C161.48822969 41.36932176 159.64491705 41.36591898 157.80160522 41.36213684 C152.79505355 41.35330104 147.78851897 41.35095882 142.78196025 41.35032105 C139.65091382 41.34960999 136.51987172 41.34747454 133.38882637 41.34482384 C122.45615488 41.33556985 111.52349559 41.33148877 100.59082031 41.33227539 C90.41681769 41.3328753 80.24286824 41.32234059 70.06887907 41.30653173 C61.32301299 41.29342868 52.57716421 41.2880927 43.8312884 41.2887308 C38.61294439 41.28898509 33.39464759 41.28617218 28.1763134 41.27555275 C23.26219534 41.26582591 18.34816912 41.26582388 13.4340477 41.27306938 C11.63785606 41.27410974 9.84165857 41.27178524 8.04547691 41.26570892 C-8.39361585 41.2137335 -23.41320192 41.69028491 -36.12133789 53.49804688 C-45.28234309 63.66165136 -47.11521636 75.71120344 -47.05949402 88.89793396 C-47.0601986 89.70287908 -47.06090318 90.5078242 -47.06162912 91.3371616 C-47.06292954 94.01377754 -47.05728103 96.69033351 -47.05175781 99.36694336 C-47.05151547 101.29438273 -47.05179352 103.22182223 -47.05255127 105.14926147 C-47.05365476 109.29015438 -47.05223158 113.43103616 -47.0491848 117.57192802 C-47.04554379 124.12382683 -47.05470801 130.67566818 -47.06697083 137.22755432 C-47.07000372 138.88846317 -47.07000372 138.88846317 -47.07309788 140.58292574 C-47.07726617 142.84649347 -47.08146892 145.11006113 -47.0857054 147.37362874 C-47.11382529 162.61931867 -47.13396216 177.86488255 -47.11669922 193.1105957 C-47.10513714 203.40604977 -47.11474021 213.70124461 -47.1487568 223.99665219 C-47.16589714 229.44023443 -47.17222171 234.88334873 -47.15263939 240.32693291 C-47.13438732 245.44653711 -47.14406107 250.56533506 -47.17489624 255.68487167 C-47.18125145 257.55972113 -47.17743448 259.43463795 -47.16250038 261.30943871 C-47.03643955 278.40832695 -47.03643955 278.40832695 -52.36279774 284.96580601 C-57.36545554 289.88265805 -60.88833688 290.79243755 -67.81665039 291.14257812 C-73.63981388 290.96292734 -77.36283265 289.89614573 -82.07446289 286.51367188 C-87.28599254 280.94235043 -88.53326901 276.18036659 -88.44958496 268.80432129 C-88.45582492 267.95137781 -88.46206489 267.09843432 -88.46849394 266.21964407 C-88.48439252 263.37400908 -88.47183166 260.52923444 -88.45922852 257.68359375 C-88.46465135 255.63795473 -88.47177491 253.59231962 -88.48046875 251.54669189 C-88.49869495 245.99659198 -88.49163489 240.44678973 -88.47895241 234.89668465 C-88.46881022 229.07674495 -88.4782225 223.25683037 -88.48449707 217.43688965 C-88.49177454 207.65514568 -88.48218794 197.8735225 -88.46313477 188.09179688 C-88.44141458 176.81119892 -88.44838174 165.53089073 -88.47044039 154.25029993 C-88.48864974 144.54721948 -88.49112426 134.84422582 -88.48068571 125.14113379 C-88.47447487 119.35427964 -88.4735475 113.56756117 -88.48683167 107.78071594 C-88.49846844 102.33048865 -88.49022251 96.88063062 -88.46725464 91.43044281 C-88.46200701 89.44039775 -88.46341282 87.45032112 -88.4723053 85.460289 C-88.53203455 70.72366643 -87.1942802 57.40123504 -80.12915039 44.14257812 C-79.61529785 43.1461731 -79.61529785 43.1461731 -79.09106445 42.12963867 C-76.25785671 36.78505991 -72.90144474 32.09019779 -68.94165039 27.51757812 C-68.34481445 26.72480469 -67.74797852 25.93203125 -67.13305664 25.11523438 C-50.14830984 4.98180011 -24.96819633 -0.11111627 0 0 Z " fill="#2CCAFE" transform="translate(141.941650390625,-0.517578125)"/>
<path d="M0 0 C8.13646924 6.65427216 19.73114146 16.78840034 21.29052734 27.70410156 C21.77614034 35.10969969 20.36525364 39.78827002 15.97802734 45.95410156 C11.180714 50.86298034 7.5574709 51.89454856 0.79052734 52.07910156 C-5.45682692 51.88807261 -9.2016004 51.30727296 -13.66259766 46.67675781 C-15.7207753 44.38608232 -17.72021276 42.05466753 -19.70947266 39.70410156 C-24.94772349 33.94202565 -31.13899219 29.12248853 -39.08056641 28.39550781 C-49.42612539 27.9462018 -57.45438517 29.38601099 -65.63916016 36.34472656 C-73.5763675 44.79528562 -74.86306779 55.05956563 -74.87744141 66.16113281 C-74.88076981 67.06353195 -74.88409821 67.96593109 -74.88752747 68.89567566 C-74.89257431 70.79934177 -74.89493649 72.70301666 -74.89477539 74.60668945 C-74.89695765 77.4967328 -74.91512572 80.38639146 -74.93408203 83.27636719 C-74.93701739 85.13378777 -74.93900123 86.99121015 -74.93994141 88.84863281 C-74.94712692 89.70205765 -74.95431244 90.55548248 -74.9617157 91.43476868 C-74.92417675 101.44992681 -72.89930316 109.66961958 -66.70947266 117.70410156 C-59.58889166 124.57914528 -51.77617994 127.3098055 -41.91870117 127.25488281 C-33.91215997 126.96028776 -27.40734923 124.09652963 -21.48681641 118.66503906 C-18.63039492 115.53294651 -16.56645245 112.50395017 -14.70947266 108.70410156 C-15.2734375 108.73028564 -15.83740234 108.75646973 -16.41845703 108.78344727 C-19.0151699 108.88845357 -21.61143485 108.9527453 -24.20947266 109.01660156 C-25.09634766 109.05849609 -25.98322266 109.10039062 -26.89697266 109.14355469 C-33.47404213 109.2644567 -37.63655136 107.93824824 -42.70947266 103.70410156 C-46.66326626 99.57402417 -48.50991815 94.67076659 -48.84228516 89.00097656 C-48.43642484 81.98198044 -45.67716478 76.55626596 -40.70947266 71.70410156 C-35.24607411 68.11623797 -30.22043319 68.25185314 -23.90478516 68.27050781 C-22.34786453 68.26264503 -22.34786453 68.26264503 -20.75949097 68.25462341 C-18.56916191 68.24821521 -16.37879838 68.24952459 -14.18847656 68.25805664 C-10.85239777 68.2665559 -7.51803831 68.23780416 -4.18212891 68.20605469 C-2.04801483 68.20444214 0.08610225 68.20502123 2.22021484 68.20800781 C3.21004364 68.19677383 4.19987244 68.18553986 5.21969604 68.17396545 C12.22255649 68.24377597 18.01224242 69.46757823 23.13037109 74.52050781 C23.49259766 75.09671875 23.85482422 75.67292969 24.22802734 76.26660156 C24.7984375 77.13478516 24.7984375 77.13478516 25.38037109 78.02050781 C30.46650087 87.42875646 28.72514454 108.27963292 26.38427734 118.73925781 C25.25113518 122.25127216 23.97663085 125.42556697 22.29052734 128.70410156 C21.62150391 130.04794922 21.62150391 130.04794922 20.93896484 131.41894531 C11.16830546 149.13167699 -4.32502952 160.95693302 -23.45947266 167.07910156 C-43.4453928 171.97277337 -64.38380955 169.39784571 -82.13134766 159.03613281 C-99.01913563 148.47899302 -109.63100512 132.13510633 -114.94775391 113.22363281 C-116.59655666 105.60531854 -116.86799589 98.02828688 -116.87744141 90.25488281 C-116.88076981 89.2798027 -116.88409821 88.3047226 -116.88752747 87.3000946 C-116.89256244 85.2470242 -116.89493686 83.19394571 -116.89477539 81.14086914 C-116.89695433 78.04266461 -116.91512638 74.94482109 -116.93408203 71.84667969 C-117.00841555 46.69059975 -113.37734035 25.74281328 -95.39697266 6.89160156 C-87.32448949 -0.84684781 -78.12090145 -6.28132208 -67.70947266 -10.29589844 C-66.46423828 -10.77736328 -66.46423828 -10.77736328 -65.19384766 -11.26855469 C-43.75297517 -18.00801022 -17.84204647 -13.52550452 0 0 Z " fill="#18DCFE" transform="translate(181.70947265625,343.2958984375)"/>
<path d="M0 0 C1.05499695 -0.01283524 2.1099939 -0.02567047 3.19696045 -0.03889465 C4.33240295 -0.04628159 5.46784546 -0.05366852 6.63769531 -0.0612793 C7.81164856 -0.06935104 8.98560181 -0.07742279 10.19512939 -0.08573914 C12.67987598 -0.09956666 15.16464146 -0.11029476 17.64941406 -0.11816406 C21.43754308 -0.13536961 25.22479765 -0.17926883 29.01269531 -0.22338867 C31.42935558 -0.23351669 33.84602324 -0.24203245 36.26269531 -0.2487793 C37.39004089 -0.26628738 38.51738647 -0.28379547 39.67889404 -0.30183411 C47.13491263 -0.28140232 53.01031822 0.5187037 58.55566406 5.9934082 C59.09900391 6.85772461 59.09900391 6.85772461 59.65332031 7.73950195 C60.03359375 8.31829102 60.41386719 8.89708008 60.80566406 9.4934082 C63.61285524 14.68610947 63.13379041 20.4470119 62.71582031 26.17700195 C60.75149797 31.8631982 57.22182271 35.58277577 52.1706543 38.79614258 C47.59797212 40.62379366 43.62902657 40.59945586 38.75097656 40.58325195 C37.79944199 40.59408813 36.84790741 40.60492432 35.86753845 40.61608887 C32.83772948 40.65024348 29.80829616 40.66591991 26.77832031 40.67700195 C22.78968038 40.69161585 18.80187224 40.72537728 14.81347656 40.77075195 C13.9059816 40.76773071 12.99848663 40.76470947 12.06349182 40.76159668 C6.56012008 40.82622371 2.49172556 41.32618026 -2.28417969 44.17700195 C-4.77276999 48.0656933 -4.6235439 52.3830218 -4.69824219 56.8840332 C-4.71760834 57.60942795 -4.73697449 58.33482269 -4.75692749 59.0821991 C-4.81640077 61.38451618 -4.86297814 63.68688414 -4.90917969 65.98950195 C-4.94738926 67.55658027 -4.98644271 69.12363826 -5.02636719 70.69067383 C-5.12207532 74.51928347 -5.20622416 78.34799137 -5.28417969 82.17700195 C-4.62542847 82.16811951 -3.96667725 82.15923706 -3.28796387 82.15008545 C3.59048759 82.06134557 10.46877546 82.001157 17.34765625 81.95727539 C19.91217661 81.93720467 22.47665146 81.90994195 25.04101562 81.87524414 C28.73481502 81.8265284 32.4280074 81.80398683 36.12207031 81.78637695 C37.83191101 81.75540924 37.83191101 81.75540924 39.57629395 81.72381592 C47.08294456 81.72171698 52.97039429 82.47928836 58.55566406 87.9934082 C58.91789062 88.56961914 59.28011719 89.14583008 59.65332031 89.73950195 C60.03359375 90.31829102 60.41386719 90.89708008 60.80566406 91.4934082 C63.61285524 96.68610947 63.13379041 102.4470119 62.71582031 108.17700195 C60.76060576 113.83683356 57.23956442 117.46197854 52.32275391 120.80322266 C46.99735802 122.83151578 41.96654002 122.54601791 36.31738281 122.4699707 C34.5322377 122.46360344 34.5322377 122.46360344 32.71102905 122.45710754 C28.92072656 122.44035364 25.13096134 122.40270611 21.34082031 122.36450195 C18.76660926 122.34945093 16.19238984 122.33576325 13.61816406 122.32348633 C7.31720039 122.29046078 1.01654875 122.2402934 -5.28417969 122.17700195 C-5.27751785 122.75249786 -5.27085602 123.32799377 -5.26399231 123.92092896 C-5.19750244 129.92322185 -5.15232248 135.9254097 -5.11938477 141.92797852 C-5.10432004 144.16662853 -5.08386435 146.40524914 -5.05786133 148.64379883 C-5.02137686 151.86587797 -5.00442986 155.08756607 -4.99121094 158.30981445 C-4.97572708 159.30691437 -4.96024323 160.30401428 -4.94429016 161.33132935 C-4.94262744 168.23282344 -5.98656733 172.50680381 -10.59667969 177.86450195 C-16.52899943 182.96905615 -21.37593174 183.7940839 -29.08886719 183.58325195 C-34.75909668 182.86234258 -38.28628437 180.66060115 -41.84277344 176.23950195 C-45.31288301 171.0490831 -46.40546578 166.45985809 -46.41789246 160.22143555 C-46.42215744 159.24889328 -46.42642242 158.27635101 -46.43081665 157.27433777 C-46.43036346 156.21870132 -46.42991028 155.16306488 -46.42944336 154.07543945 C-46.43280197 152.95442337 -46.43616058 151.83340729 -46.43962097 150.67842102 C-46.44912438 146.9696034 -46.45107414 143.260831 -46.45214844 139.55200195 C-46.4553627 136.96712221 -46.45872691 134.38224265 -46.4622345 131.79736328 C-46.46822514 126.37361147 -46.47011746 120.94987751 -46.46948242 115.52612305 C-46.46888366 109.28635207 -46.47939687 103.0466681 -46.49522609 96.8069191 C-46.50996693 90.77827345 -46.51346797 84.74967435 -46.5128727 78.7210083 C-46.51404753 76.16953172 -46.51844124 73.6180544 -46.52620506 71.06658936 C-46.53608608 67.48222823 -46.53309446 63.89808593 -46.52709961 60.3137207 C-46.53271912 59.27427811 -46.53833862 58.23483551 -46.54412842 57.16389465 C-46.47162238 39.96255494 -42.85791153 25.94557458 -30.60058594 13.29418945 C-22.2000017 5.61608379 -11.52896714 0.12252458 0 0 Z " fill="#48B1FE" transform="translate(374.2841796875,328.822998046875)"/>
<path d="M0 0 C4.84974831 2.87088695 7.74237782 7.16463345 9.5 12.4375 C9.59793886 14.50397291 9.63500779 16.57350287 9.64044189 18.64228821 C9.64615204 19.94193512 9.65186218 21.24158203 9.65774536 22.58061218 C9.65899071 24.02420034 9.66011581 25.46778861 9.66113281 26.91137695 C9.6657613 28.42915976 9.670786 29.9469414 9.67617798 31.46472168 C9.68930119 35.59084792 9.6957468 39.71695789 9.70018864 43.84310174 C9.70311953 46.42097394 9.70722438 48.99884169 9.71169281 51.57671165 C9.72536763 59.64235041 9.73503432 67.70797899 9.7388947 75.77362853 C9.74337534 85.08407583 9.76092355 94.39437631 9.7898953 103.70477897 C9.81151229 110.9014797 9.82159899 118.09813913 9.82293582 125.29487199 C9.82398385 129.59312119 9.8298912 133.89123238 9.84775543 138.1894474 C9.86423642 142.23354175 9.86639156 146.27739435 9.85761642 150.32151031 C9.85684606 151.80416448 9.86118877 153.28683164 9.87107468 154.76945305 C9.8837981 156.79684941 9.87612424 158.82434295 9.86749268 160.85176086 C9.86895924 161.98535695 9.8704258 163.11895304 9.8719368 164.28690052 C9.14453201 170.44859561 6.11501662 174.46643919 1.5 178.4375 C-4.16334633 182.54342609 -10.79614696 182.28982361 -17.5 181.4375 C-23.29772714 179.43700629 -26.51920396 175.66283843 -29.58984375 170.5 C-31.4821541 166.21184608 -31.62752746 161.95162791 -31.64044189 157.31610107 C-31.64615204 156.08535355 -31.65186218 154.85460602 -31.65774536 153.58656311 C-31.65899056 152.2305604 -31.66011569 150.87455758 -31.66113281 149.51855469 C-31.66576444 148.0841611 -31.67078956 146.64976875 -31.67617798 145.21537781 C-31.68927109 141.32469826 -31.69574094 137.43403595 -31.70018864 133.54333782 C-31.70312446 131.1098247 -31.70723023 128.67631625 -31.71169281 126.24280548 C-31.72535983 118.6208682 -31.73503028 110.99894162 -31.7388947 103.37699294 C-31.74337313 94.5935266 -31.76091432 85.81021604 -31.7898953 77.02679706 C-31.81154716 70.22745789 -31.82160086 63.42816244 -31.82293582 56.62878919 C-31.82398137 52.57248006 -31.82983575 48.51631754 -31.84775543 44.46004486 C-31.86429682 40.64162382 -31.86636242 36.82345864 -31.85761642 33.00501442 C-31.85684927 31.60908381 -31.86114602 30.21313909 -31.87107468 28.81724358 C-31.93103563 19.85666017 -31.78979034 11.45472278 -26.1875 4.0625 C-19.22620843 -2.73690106 -8.99549224 -3.96759353 0 0 Z " fill="#39BFFE" transform="translate(279.5,330.5625)"/>
</svg>
